<svg width="397" height="404" viewBox="0 0 397 404" fill="none" xmlns="http://www.w3.org/2000/svg">
<g clip-path="url(#clip0_4_66)">
<path d="M62.4899 342.927C97.8132 379.984 147.582 403.102 202.635 403.102C309.517 403.102 396.474 315.978 396.474 208.891C396.474 155.568 374.912 107.202 340.07 72.0729C338.719 67.2092 337.892 62.8192 337.791 59.2242C337.782 58.8351 337.774 58.4545 337.765 58.0739C337.411 43.322 338.28 36.1406 343.11 12.837L345.6 0.775024L336.237 8.75152C328.833 15.0617 324.418 32.6134 322.181 45.3605C321.514 49.15 321.049 52.4996 320.745 55.0118C288.022 29.7374 247.051 14.681 202.635 14.681C95.7533 14.681 8.79568 101.805 8.79568 208.891C8.79568 238.776 15.575 267.104 27.6562 292.412C24.009 292.285 20.5898 292.167 18.074 292.082C15.5834 291.998 13.9878 291.947 13.9203 291.947C13.8443 291.947 13.7599 291.947 13.6839 291.947C3.14766 291.947 0.8513 299.035 0.420734 303.281C-0.474169 312.112 7.53775 326.171 15.0178 332.371C26.1703 341.608 36.7487 345.913 48.2981 345.913C48.3909 345.913 48.4838 345.913 48.5767 345.913C50.147 345.905 51.7004 345.761 53.2369 345.515C56.4197 345.016 59.5097 344.069 62.4899 342.927ZM115.897 350.506C131.727 350.235 149.853 347.884 158.532 344.602C167.21 341.32 182.508 333.124 190.951 327.042C203.277 318.177 224.906 288.31 228.477 284.537C232.049 280.765 245.675 265.336 258.372 257.833C268.782 251.684 280.12 248.038 292.573 245.103C298.871 243.614 318.939 239.622 335.824 233.244C354.498 226.198 367.795 214.525 374.769 208.883C368.918 218.018 355.486 229.928 340.18 237.6C325.017 245.204 295.089 250.829 284.493 254.052C262.838 260.65 249.93 273.203 236.397 287.811C222.863 302.419 210.056 319.801 199.123 328.835C192.166 334.578 182.086 339.391 176.303 342.064C170.511 344.737 168.164 345.998 159.528 348.425C151.153 350.794 125.082 352.257 115.897 350.506ZM338.973 11.9743C334.017 35.8868 333.122 43.1021 333.57 59.3427C334.017 75.5833 347.525 104.909 358.787 124.305C370.041 143.701 381.751 172.122 379.049 183.406C376.348 194.681 374.034 209.171 336.727 224.912C302.51 239.351 272.142 237.093 247.828 251.98C223.513 266.867 196.928 316.088 162.255 333.234C151.44 338.579 139.933 341.709 129.152 341.692C112.528 341.675 101.089 333.352 85.0229 334.528C114.293 332.388 124.643 341.599 154.361 326.407C181.672 312.442 200.736 261.445 224.459 243.851C251.694 223.652 289.888 224.904 317.352 216.335C344.815 207.766 358.323 200.094 361.928 185.656C365.533 171.217 360.577 162.2 356.077 151.373C351.577 140.546 338.432 123.451 331.315 103.099C323.658 81.2167 324.114 67.9113 324.561 59.3427C325.017 50.7656 329.965 19.6378 338.973 11.9743ZM48.5513 341.692C39.0957 341.751 29.4122 338.816 17.7109 329.114C10.7374 323.337 3.94969 310.395 4.62509 303.713C5.18229 298.164 8.59306 296.134 13.8865 296.185C16.4952 296.21 36.9851 296.946 44.9633 297.343C49.3956 293.859 53.7519 290.45 56.2087 288.741C62.0593 284.681 77.374 280.849 85.0229 277.237C92.6802 273.625 101.68 270.699 114.293 257.613C126.906 244.528 172.149 168.062 180.254 155.881C188.359 143.701 201.884 124.838 207.042 108.064C212.715 89.6246 216.498 63.4028 220.103 23.7064C222.129 65.213 220.778 72.1998 220.103 90.6989C219.427 109.198 207.042 133.102 204.568 137.619C202.095 142.127 138.371 231.078 126.898 249.721C115.897 267.594 110.578 267.594 103.149 272.052C89.0415 280.511 64.2543 288.91 59.0791 291.617C53.9039 294.324 43.604 304.753 38.3106 307.578C33.0172 310.404 29.8681 310.395 23.7895 310.395C17.7109 310.395 17.3732 309.947 10.6193 307.917C17.6012 309.38 28.2894 309.27 30.991 307.917C32.384 307.215 37.5086 303.205 42.9371 298.934C41.5525 298.959 39.7627 298.891 37.0695 298.891C30.3156 298.891 14.7814 298.663 12.5273 298.663C10.2731 298.663 9.15026 300.921 8.24692 302.275C7.34357 303.628 6.44867 307.688 8.69437 312.197C10.9485 316.705 19.0533 327.312 28.7284 331.593C38.4119 335.881 47.9688 334.748 51.1854 334.071C54.3935 333.394 74.7568 328.108 80.0587 326.856C84.339 325.841 93.7946 325.731 98.5224 328.657C83.3006 329.419 82.7603 329.562 75.1114 332.718C67.4625 335.873 58.0069 341.633 48.5513 341.692Z" fill="white"/>
</g>
<defs>
<clipPath id="clip0_4_66">
<rect width="396.121" height="402.327" fill="white" transform="translate(0.353516 0.775024)"/>
</clipPath>
</defs>
</svg>
